<svg width="635" height="529" viewBox="0 0 635 529" fill="none" xmlns="http://www.w3.org/2000/svg">
<g clip-path="url(#clip0_332_1228)">
<path d="M310.999 446.535L328.6 441.349L323.464 459L328.6 476.601L310.999 471.465L293.348 476.601L298.533 459L293.348 441.349L310.999 446.535Z" fill="black" stroke="white" stroke-miterlimit="10"/>
</g>
<g clip-path="url(#clip1_332_1228)">
<path d="M124.947 359.509L156.423 376.659L124.947 393.947L107.729 425.354L90.5097 393.947L59.0337 376.659L90.5097 359.509L107.729 327.964L124.947 359.509Z" fill="black" stroke="white" stroke-miterlimit="10"/>
</g>
<path d="M345.586 215.187C414.025 252.937 472.758 292.935 512.391 327.077C532.21 344.151 547.233 359.742 556.306 372.842C560.843 379.393 563.876 385.297 565.288 390.433C566.699 395.568 566.479 399.89 564.58 403.333C562.68 406.777 559.142 409.268 554.047 410.813C548.949 412.359 542.337 412.943 534.376 412.6C518.455 411.913 497.254 407.524 472.24 399.868C422.219 384.558 357.057 356.216 288.618 318.465C220.179 280.715 161.445 240.717 121.812 206.575C101.993 189.501 86.971 173.91 77.8974 160.81C73.36 154.259 70.3264 148.355 68.9146 143.218C67.5035 138.084 67.723 133.763 69.6224 130.319C71.522 126.875 75.0605 124.384 80.1559 122.839C85.2536 121.293 91.8663 120.709 99.8276 121.052C115.748 121.739 136.949 126.128 161.963 133.784C211.983 149.094 277.146 177.436 345.586 215.187Z" stroke="black"/>
<path d="M325.355 251.861C393.794 289.611 452.528 329.609 492.16 363.751C511.979 380.825 527.002 396.416 536.076 409.516C540.613 416.066 543.646 421.971 545.058 427.107C546.469 432.241 546.249 436.563 544.349 440.007C542.45 443.451 538.912 445.942 533.816 447.487C528.719 449.033 522.107 449.617 514.145 449.274C498.225 448.587 477.023 444.198 452.009 436.542C401.989 421.232 336.827 392.89 268.387 355.139C199.948 317.389 141.214 277.391 101.582 243.249C81.7626 226.175 66.7405 210.584 57.6669 197.484C53.1295 190.933 50.096 185.029 48.6841 179.892C47.273 174.758 47.4926 170.437 49.3919 166.993C51.2915 163.549 54.8301 161.057 59.9254 159.512C65.0232 157.966 71.6359 157.383 79.5971 157.726C95.5175 158.413 116.719 162.802 141.732 170.458C191.753 185.768 256.916 214.11 325.355 251.861Z" stroke="black"/>
<path d="M305.127 288.535C373.566 326.285 432.299 366.283 471.932 400.425C491.751 417.499 506.774 433.09 515.847 446.19C520.385 452.741 523.417 458.645 524.829 463.782C526.24 468.916 526.02 473.238 524.121 476.682C522.221 480.125 518.683 482.616 513.588 484.161C508.49 485.707 501.878 486.292 493.917 485.948C477.997 485.261 456.795 480.872 431.781 473.216C381.76 457.906 316.598 429.564 248.159 391.814C179.72 354.063 120.986 314.065 81.3531 279.923C61.5341 262.849 46.512 247.258 37.4384 234.158C32.901 227.608 29.8674 221.703 28.4556 216.566C27.0445 211.433 27.2641 207.111 29.1634 203.667C31.063 200.223 34.6015 197.732 39.6969 196.187C44.7946 194.641 51.4073 194.057 59.3686 194.4C75.289 195.087 96.4902 199.476 121.504 207.132C171.524 222.442 236.687 250.784 305.127 288.535Z" stroke="black"/>
<circle cx="131.5" cy="118.5" r="15.5" fill="#B9FF66"/>
<circle cx="421" cy="449" r="10" fill="#B9FF66"/>
<circle cx="81.5" cy="78.5" r="23.5" fill="black"/>
<path d="M340.435 383.59C334.131 385.744 326.926 381.475 324.42 374.071L285.422 259.81L308.21 252.015L347.248 366.433C349.754 373.758 346.7 381.436 340.435 383.59Z" fill="black"/>
<path d="M337.028 385C335.188 385 333.308 384.569 331.507 383.668C327.866 381.866 324.968 378.498 323.559 374.345L284.56 260.084C284.403 259.653 284.638 259.144 285.108 258.987L307.897 251.192C308.131 251.113 308.366 251.113 308.562 251.231C308.758 251.348 308.915 251.505 308.993 251.74L348.031 366.159C350.654 373.914 347.365 382.101 340.67 384.412C339.534 384.804 338.281 385 337.028 385ZM286.518 260.358L325.242 373.797C326.495 377.518 329.08 380.574 332.29 382.14C334.875 383.394 337.655 383.629 340.16 382.767C345.955 380.769 348.775 373.562 346.425 366.707L307.662 253.111L286.518 260.358Z" fill="black"/>
<path d="M304.176 153.382L230.447 205.988L201.746 235.798L190.47 255.736L190.431 255.892C188.199 259.339 189.491 267.291 193.68 275.399C197.792 283.39 203.587 288.953 207.659 289.266L207.541 289.344L229.194 291.695L269.72 285.231L355.744 254.443L462.677 272.775L463.421 272.814C436.56 267.8 400.303 231.88 373.951 181.076C347.639 130.31 339.26 80.132 350.81 55.376H350.771L304.764 152.128L304.176 153.382Z" fill="#B9FF66"/>
<path d="M481.192 270.603C507.62 256.873 502.509 194.629 469.778 131.577C437.047 68.5247 389.089 28.5412 362.662 42.2711C336.234 56.001 341.344 118.245 374.076 181.297C406.807 244.349 454.765 284.333 481.192 270.603Z" fill="white"/>
<path d="M469.569 274.185C458.057 274.185 444.196 267.761 429.278 255.266C408.957 238.266 389.027 212.06 373.169 181.428C349.167 135.05 339.26 87.4964 347.953 60.2726C350.85 51.1849 355.705 44.8392 362.323 41.4313C375.479 34.6939 393.999 40.4129 414.517 57.5698C434.838 74.57 454.768 100.775 470.626 131.407C494.667 177.786 504.574 225.339 495.842 252.563C492.945 261.651 488.089 267.996 481.472 271.404C477.909 273.284 473.915 274.185 469.569 274.185ZM374.304 40.4129C370.271 40.4129 366.512 41.2355 363.145 42.9982C356.919 46.171 352.377 52.2033 349.636 60.8601C341.061 87.6922 350.928 134.737 374.735 180.723C407.155 243.279 454.69 283.312 480.728 269.955C486.954 266.782 491.496 260.75 494.237 252.093C502.812 225.261 492.945 178.216 469.138 132.23C440.907 77.782 401.282 40.4129 374.304 40.4129Z" fill="black"/>
<path d="M469.569 274.185C458.057 274.185 444.196 267.761 429.278 255.266C408.957 238.265 389.027 212.06 373.169 181.428C349.167 135.05 339.26 87.4963 347.953 60.2725C350.85 51.1848 355.705 44.8391 362.323 41.4312C371.133 36.8874 382.644 38.0234 395.605 44.6824C408.017 51.0673 421.447 62.3877 434.525 77.3902C434.838 77.7427 434.799 78.2911 434.447 78.6045C434.094 78.9179 433.546 78.8787 433.233 78.5262C406.686 48.0511 379.825 34.4196 363.145 42.9981C356.919 46.1709 352.377 52.2033 349.636 60.86C341.061 87.6922 350.928 134.737 374.735 180.723C402.927 235.132 442.591 272.54 469.53 272.54C473.563 272.54 477.322 271.717 480.689 269.955C486.915 266.782 491.457 260.75 494.197 252.093C502.772 225.261 492.905 178.216 469.099 132.23C462.012 118.52 454.024 105.632 445.449 93.9204C445.175 93.5286 445.253 92.9803 445.645 92.7061C446.037 92.4319 446.585 92.5102 446.859 92.9019C455.512 104.692 463.5 117.658 470.665 131.446C494.667 177.785 504.574 225.339 495.842 252.563C492.945 261.65 488.089 267.996 481.472 271.404C477.909 273.284 473.915 274.185 469.569 274.185Z" fill="black"/>
<path d="M421.229 190.339C427.351 187.158 426.174 172.751 418.599 158.159C411.024 143.567 399.92 134.316 393.798 137.497C387.676 140.678 388.854 155.085 396.428 169.677C404.003 184.269 415.107 193.52 421.229 190.339Z" fill="#B9FF66"/>
<path d="M418.55 191.848C411.815 191.848 402.418 183.152 395.644 170.03C390.006 159.14 387.695 147.937 389.771 141.474C390.515 139.202 391.728 137.596 393.412 136.734C400.069 133.326 411.463 142.61 419.372 157.847C425.01 168.737 427.321 179.94 425.245 186.403C424.501 188.675 423.288 190.281 421.604 191.143C420.664 191.613 419.646 191.848 418.55 191.848ZM396.466 137.714C395.644 137.714 394.861 137.87 394.195 138.223C392.903 138.889 391.963 140.142 391.376 141.983C389.457 148.016 391.689 158.748 397.132 169.246C404.336 183.152 415.182 192.514 420.782 189.615C422.074 188.949 423.013 187.696 423.601 185.855C425.519 179.783 423.248 169.09 417.845 158.592C411.502 146.41 402.418 137.714 396.466 137.714Z" fill="#B9FF66"/>
<path d="M463.618 259.574C453.515 259.574 441.377 253.934 428.3 243.005C410.523 228.12 393.06 205.166 379.199 178.373C358.172 137.792 349.519 96.153 357.115 72.2978C359.66 64.307 363.928 58.7447 369.762 55.7285C383.154 48.8736 402.849 56.7861 423.836 77.4292C424.188 77.7818 424.188 78.291 423.836 78.6435C423.483 78.9961 422.974 78.9961 422.622 78.6435C402.183 58.5488 383.193 50.7146 370.546 57.2562C365.142 60.0373 361.187 65.2471 358.76 72.8071C351.281 96.2313 359.895 137.361 380.726 177.589C405.355 225.182 440.007 257.851 463.578 257.851C467.102 257.851 470.352 257.107 473.328 255.618C478.731 252.837 482.686 247.627 485.114 240.067C492.592 216.643 483.978 175.513 463.148 135.285C456.844 123.142 449.796 111.743 442.2 101.441C441.926 101.049 442.004 100.501 442.395 100.227C442.787 99.9526 443.335 100.031 443.609 100.423C451.284 110.842 458.371 122.28 464.714 134.501C485.74 175.082 494.394 216.721 486.797 240.576C484.252 248.567 479.984 254.13 474.15 257.146C470.94 258.752 467.416 259.574 463.618 259.574Z" fill="black"/>
<path d="M229.234 292.517C229.195 292.517 229.156 292.517 229.156 292.517L207.503 290.167C207.386 290.167 207.268 290.128 207.151 290.05C202.687 289.344 197.049 283.704 192.937 275.791C188.552 267.448 187.26 259.3 189.648 255.462L189.687 255.344L200.964 235.367C201.003 235.289 201.042 235.249 201.082 235.21L229.782 205.401C229.821 205.362 229.861 205.323 229.9 205.284L303.433 152.794L349.95 54.9845C350.067 54.7886 350.224 54.632 350.459 54.5536C350.694 54.4753 350.929 54.4753 351.124 54.5928C351.555 54.7886 351.751 55.2979 351.555 55.7288C339.769 80.994 349.088 131.211 374.696 180.645C400.343 230.157 436.091 266.821 463.617 271.874C464.048 271.953 464.361 272.344 464.322 272.814C464.283 273.245 463.891 273.559 463.461 273.598L462.717 273.559C462.678 273.559 462.639 273.559 462.599 273.559L355.862 255.266L270.034 285.976C269.995 285.976 269.916 286.015 269.877 286.015L229.352 292.478C229.312 292.517 229.273 292.517 229.234 292.517ZM208.129 288.522L229.234 290.794L269.564 284.331L355.549 253.581C355.706 253.542 355.823 253.503 355.98 253.542L452.067 269.994C426.107 258.595 395.761 224.947 373.247 181.468C350.889 138.301 340.905 94.4689 346.387 66.775L304.96 153.735C304.882 153.852 304.804 153.97 304.686 154.048L231.035 206.655L202.452 236.307L191.175 256.284C191.175 256.323 191.136 256.363 191.136 256.363C189.1 259.535 190.47 267.37 194.425 275.008C198.302 282.49 203.901 288.13 207.738 288.404C207.895 288.404 208.012 288.444 208.129 288.522Z" fill="black"/>
<path d="M304.293 153.069L350.77 55.3369H350.81C339.259 80.093 347.677 130.271 373.95 181.037C400.302 231.881 436.56 267.8 463.498 272.736L462.754 272.697L355.978 254.404L353.511 253.973C341.099 251.779 324.536 235.641 312.672 212.608C300.495 188.988 298.342 165.447 303.745 154.244L304.293 153.069Z" fill="white"/>
<path d="M463.499 273.598C463.46 273.598 463.499 273.598 463.499 273.598L462.716 273.558C462.676 273.558 462.637 273.558 462.598 273.558L355.822 255.266L353.355 254.835C340.238 252.524 323.597 235.719 311.89 213.039C298.616 187.265 297.95 164.311 302.962 153.891L303.55 152.716L350.027 55.0236C350.144 54.8277 350.301 54.671 350.536 54.5927C350.771 54.5143 351.006 54.5143 351.201 54.6319C351.632 54.8277 351.828 55.3369 351.632 55.7678C339.846 81.0331 349.165 131.25 374.773 180.684C400.42 230.196 436.168 266.86 463.694 271.913C464.125 271.992 464.438 272.383 464.399 272.853C464.282 273.245 463.929 273.598 463.499 273.598ZM346.307 66.7749L305.077 153.46L304.489 154.635C299.517 164.977 300.965 188.087 313.417 212.217C324.889 234.466 341.06 250.918 353.668 253.111L356.135 253.542L452.026 269.994C426.066 258.595 395.721 224.947 373.207 181.467C350.849 138.301 340.864 94.4687 346.307 66.7749Z" fill="black"/>
<path d="M228.059 292.4C228.02 292.4 227.981 292.4 227.981 292.4L207.463 290.206C207.346 290.206 207.228 290.167 207.111 290.089C202.647 289.384 197.009 283.743 192.898 275.831C188.551 267.448 187.259 259.3 189.648 255.462L189.687 255.344L200.964 235.367C201.198 234.936 201.708 234.819 202.138 235.054C202.569 235.289 202.686 235.798 202.451 236.229L191.175 256.284C191.175 256.323 191.136 256.363 191.136 256.363C189.1 259.535 190.47 267.37 194.425 275.008C198.301 282.49 203.9 288.13 207.737 288.404C207.855 288.404 208.012 288.444 208.09 288.522L228.137 290.676C228.607 290.716 228.96 291.146 228.881 291.616C228.842 292.047 228.49 292.4 228.059 292.4Z" fill="black"/>
<path d="M229.429 291.538C222.773 291.068 213.454 281.628 206.68 268.584C199.515 254.756 197.831 240.459 202.216 235.367L190.509 255.736L190.431 255.892C188.199 259.339 189.491 267.291 193.68 275.399C197.792 283.39 203.587 288.953 207.659 289.266L207.541 289.344L229.429 291.538Z" fill="white"/>
<path d="M229.429 292.4C229.39 292.4 229.39 292.4 229.351 292.4C229.194 292.4 228.999 292.36 228.842 292.36L207.463 290.206C207.346 290.206 207.228 290.167 207.111 290.088C202.647 289.383 197.009 283.743 192.898 275.83C188.551 267.448 187.259 259.3 189.648 255.461L189.687 255.344L199.985 237.404C200.376 236.385 200.885 235.484 201.512 234.74C201.786 234.387 202.295 234.348 202.647 234.583C203 234.857 203.117 235.327 202.882 235.719L201.433 238.187C199.123 244.415 201.394 256.636 207.346 268.074C213.806 280.57 222.616 289.697 228.92 290.519L229.39 290.559C229.86 290.598 230.213 291.029 230.173 291.499C230.213 292.047 229.86 292.4 229.429 292.4ZM208.09 288.522L223.047 290.049C217.291 286.367 210.948 278.768 205.897 268.975C201.003 259.535 198.575 249.742 198.967 242.692L191.175 256.284C191.175 256.323 191.136 256.362 191.136 256.362C189.1 259.535 190.47 267.369 194.425 275.008C198.301 282.489 203.9 288.13 207.737 288.404C207.855 288.404 208.012 288.443 208.09 288.522Z" fill="black"/>
<path d="M268.271 285.388L269.994 285.035C260.675 286.994 245.952 272.892 235.576 252.876C224.965 232.429 222.968 212.021 230.486 205.988L229.507 206.968L202.294 235.249C197.83 240.263 199.475 254.639 206.68 268.544C213.61 281.941 223.438 291.499 230.134 291.459L268.271 285.388Z" fill="black"/>
<path d="M230.095 292.36C222.969 292.36 213.063 282.764 205.897 268.975C198.614 254.874 196.774 240.146 201.629 234.701L228.333 206.968C228.803 206.341 229.351 205.793 229.939 205.323C230.291 205.048 230.8 205.088 231.113 205.401C231.426 205.753 231.426 206.263 231.113 206.576L229.586 208.182C224.144 215.468 226.845 234.113 236.36 252.484C246.619 272.305 260.95 285.897 269.72 284.252L269.838 284.213C270.308 284.135 270.738 284.409 270.856 284.879C270.934 285.349 270.66 285.78 270.19 285.897C270.151 285.897 270.112 285.897 270.073 285.936L268.467 286.25H268.428L230.291 292.321C230.213 292.321 230.134 292.36 230.095 292.36ZM226.062 211.825L202.921 235.876C198.614 240.733 200.572 254.913 207.463 268.192C214.198 281.197 223.713 290.598 230.095 290.637L263.769 285.27C254.685 282.058 243.486 269.955 234.833 253.307C226.61 237.443 223.439 221.304 226.062 211.825Z" fill="black"/>
<path d="M393.804 137.479C387.657 140.612 388.557 155.145 396.388 169.638C409.505 193.885 419.96 191.025 421.173 190.594C421.213 190.594 421.213 190.634 421.173 190.634L398.659 208.77C392.042 199.486 385.738 189.145 379.943 177.981C374.422 167.288 369.763 156.633 366.082 146.292L393.804 137.479Z" fill="black"/>
<path d="M398.659 209.631C398.62 209.631 398.581 209.631 398.542 209.631C398.307 209.592 398.111 209.475 397.954 209.279C391.18 199.76 384.876 189.341 379.199 178.412C373.756 167.914 369.058 157.221 365.299 146.645C365.22 146.41 365.22 146.174 365.338 145.979C365.455 145.783 365.612 145.626 365.847 145.548L393.569 136.734C393.999 136.617 394.469 136.813 394.626 137.243C394.783 137.674 394.626 138.144 394.234 138.34C392.903 139.006 391.924 140.338 391.337 142.297C389.418 148.446 391.768 159.336 397.21 169.325C410.014 192.984 419.881 190.281 420.938 189.889C421.33 189.733 421.8 189.928 421.996 190.281C422.191 190.634 422.113 191.143 421.8 191.417L399.207 209.436C399.051 209.553 398.855 209.631 398.659 209.631ZM367.217 146.84C370.937 157.064 375.479 167.405 380.726 177.59C386.208 188.166 392.316 198.233 398.855 207.516L418.393 191.77C413.93 191.574 405.511 188.244 395.644 170.03C389.927 159.493 387.578 148.368 389.653 141.67C389.927 140.808 390.241 140.064 390.632 139.359L367.217 146.84Z" fill="black"/>
<path d="M509.649 81.5974C527.549 72.1937 534.473 50.1159 525.113 32.2852C515.753 14.4545 493.655 7.62311 475.755 17.0268C457.855 26.4305 450.931 48.5083 460.291 66.339C469.651 84.1697 491.749 91.0011 509.649 81.5974Z" fill="black"/>
<path d="M476.03 41.2352C477.753 38.8849 480.298 37.4356 483.195 37.1223C485.388 36.8872 487.424 37.3573 489.343 38.5324C490.322 39.12 491.183 39.8642 492.005 40.7652C492.593 39.7075 493.298 38.7674 494.12 37.984C495.725 36.4172 497.644 35.5162 499.797 35.2812C502.695 34.9678 505.514 35.8296 507.707 37.749C509.86 39.6292 511.231 42.3712 511.583 45.4657C511.935 48.6385 511.074 51.6939 508.881 55.0626C506.924 58.0787 503.948 61.2124 500.502 64.8945C499.327 66.1479 497.996 67.5581 496.626 69.0466C496.273 69.4383 495.764 69.7125 495.216 69.7517C494.668 69.83 494.159 69.6733 493.689 69.36C492.005 68.1848 490.4 67.0881 488.99 66.1479C484.84 63.3276 481.238 60.899 478.653 58.3921C475.756 55.611 474.268 52.7906 473.916 49.6178C473.602 46.5233 474.346 43.5463 476.03 41.2352Z" fill="white"/>
<path d="M611.198 83.5925C624.302 70.4829 624.302 49.2281 611.198 36.1185C598.094 23.0089 576.847 23.0089 563.743 36.1185C550.639 49.228 550.639 70.4829 563.743 83.5925C576.847 96.7021 598.094 96.7021 611.198 83.5925Z" fill="#B9FF66"/>
<path d="M587.464 94.2732C568.513 94.2732 553.047 78.8399 553.047 59.8419C553.047 40.8832 568.474 25.4106 587.464 25.4106C606.455 25.4106 621.882 40.844 621.882 59.8419C621.882 78.8007 606.455 94.2732 587.464 94.2732ZM587.464 27.1342C569.453 27.1342 554.77 41.7841 554.77 59.8419C554.77 77.8606 569.414 92.5497 587.464 92.5497C605.476 92.5497 620.159 77.8998 620.159 59.8419C620.159 41.8233 605.515 27.1342 587.464 27.1342Z" fill="#B9FF66"/>
<path d="M596.548 63.1713C594.668 63.1713 593.024 64.0723 591.928 65.4824L580.612 61.0561C580.612 60.8994 580.651 60.7819 580.651 60.6252C580.651 60.351 580.612 60.0768 580.573 59.8026L592.163 54.4362C593.22 55.6505 594.786 56.4339 596.548 56.4731C599.759 56.4731 602.421 53.8486 602.421 50.5974C602.421 47.3462 599.798 44.6826 596.548 44.6826C593.337 44.6826 590.675 47.3071 590.675 50.5583C590.675 50.8325 590.714 51.1067 590.753 51.3809L579.163 56.7473C578.106 55.533 576.54 54.7496 574.778 54.7104C571.567 54.7104 568.904 57.3348 568.904 60.586C568.904 63.8372 571.528 66.5009 574.778 66.5009C576.657 66.5009 578.302 65.5999 579.398 64.1898L590.714 68.6161C590.714 68.7728 590.675 68.8903 590.675 69.047C590.675 72.2982 593.298 74.9618 596.548 74.9618C599.759 74.9618 602.421 72.3373 602.421 69.0861C602.382 65.8349 599.759 63.2105 596.548 63.1713Z" fill="black"/>
<path d="M596.992 189.993C612.359 179.322 616.22 158.283 605.615 142.999C595.011 127.715 573.958 123.975 558.591 134.645C543.225 145.315 539.364 166.355 549.968 181.639C560.572 196.923 581.626 200.663 596.992 189.993Z" fill="black"/>
<path d="M569.337 178.373L564.404 151.619C564.169 150.248 565.422 149.112 566.753 149.465L595.924 157.73C597.411 158.161 597.764 160.08 596.55 161.02L572.274 179.509C571.217 180.371 569.611 179.783 569.337 178.373Z" fill="white"/>
<path d="M577.461 299.582C596.438 290.34 604.378 267.553 595.197 248.686C586.015 229.819 563.189 222.016 544.213 231.258C525.237 240.499 517.296 263.286 526.478 282.153C535.659 301.02 558.485 308.823 577.461 299.582Z" fill="#B9FF66"/>
<path d="M560.644 304.347C556.571 304.347 552.421 303.72 548.388 302.349C538.521 299.059 530.533 292.165 525.913 282.842C521.293 273.559 520.588 263.022 523.916 253.151C530.807 232.821 552.969 221.735 573.369 228.512C583.236 231.802 591.224 238.696 595.844 248.019C600.464 257.303 601.169 267.84 597.841 277.711C592.281 294.006 576.971 304.347 560.644 304.347ZM561.035 228.277C545.412 228.277 530.768 238.148 525.482 253.738C522.311 263.178 522.976 273.245 527.401 282.098C531.825 290.99 539.461 297.61 548.897 300.743C568.396 307.206 589.579 296.63 596.157 277.202C599.329 267.761 598.663 257.694 594.239 248.842C589.814 239.95 582.179 233.33 572.743 230.196C568.866 228.865 564.911 228.277 561.035 228.277Z" fill="black"/>
<path d="M580.301 259.261C579.909 268.78 563.816 291.029 559.979 296.239C559.588 296.787 558.765 296.748 558.413 296.16C555.985 292.243 547.959 279.082 543.769 268.427C542.085 264.197 541.028 260.358 541.146 257.655C541.576 246.844 550.699 238.422 561.506 238.853C572.313 239.362 580.732 248.45 580.301 259.261Z" fill="black"/>
<path d="M567.056 264.827C570.558 261.324 570.558 255.644 567.056 252.141C563.554 248.638 557.877 248.638 554.375 252.141C550.874 255.644 550.874 261.324 554.375 264.827C557.877 268.33 563.554 268.33 567.056 264.827Z" fill="#B9FF66"/>
<defs>
<clipPath id="clip0_332_1228">
<rect width="36" height="36" fill="white" transform="translate(293 441)"/>
</clipPath>
<clipPath id="clip1_332_1228">
<rect width="70.3259" height="70.3259" fill="white" transform="translate(107.729 327) rotate(45)"/>
</clipPath>
</defs>
</svg>
